<svg xmlns="http://www.w3.org/2000/svg" width="25" height="24" viewBox="0 0 25 24">
    <g fill="none" fill-rule="evenodd">
        <path fill="#770217" d="M16.811 13.138c-.051.072-.051.144-.077.24-.026.31.232.596.568.62.336.024.646-.215.672-.525 0-.072 0-.143.026-.263v-.263c0-.692-.13-1.361-.362-2.006-.31-.836-.853-1.576-1.499-2.197a6.68 6.68 0 0 0-2.894-1.553A7.387 7.387 0 0 0 11.617 7c-.18 0-.362 0-.568.024l-.543.072c-.336.047-.569.358-.491.644.052.31.388.526.698.454.155-.024.284-.048.439-.048h.078c.129 0 .258-.023.387-.023 1.421 0 2.74.525 3.67 1.409.93.86 1.498 2.03 1.524 3.344v.262z"/>
        <path fill="#770217" d="M19.85 13.405a.563.563 0 0 0 .516.593c.305.023.587-.205.61-.502.024-.25.024-.502.024-.753 0-.502-.047-.982-.117-1.461-.306-1.826-1.221-3.47-2.512-4.725a9.016 9.016 0 0 0-5.634-2.534C12.502 4 12.244 4 12.009 4c-.258 0-.516 0-.775.023a8.95 8.95 0 0 0-.774.091c-.306.046-.517.343-.446.616a.534.534 0 0 0 .633.434l.47-.068c.07 0 .14-.023.211-.023.235-.023.47-.023.681-.023.798 0 1.55.114 2.277.32a7.85 7.85 0 0 1 5.07 4.497 7.53 7.53 0 0 1 .564 2.83v.229c-.047.182-.07.32-.07.479z"/>
        <path fill="#770217" d="M21.143 3.655C18.733 1.385 15.434 0 11.78 0c-.38 0-.76.024-1.141.048A9.32 9.32 0 0 0 9.497.19c-.33.048-.558.358-.482.645.05.31.38.526.685.454.177-.024.33-.048.507-.072.178-.024.355-.047.533-.047.355-.024.685-.048 1.04-.048 3.299 0 6.293 1.266 8.475 3.296 2.157 2.03 3.502 4.85 3.502 7.979v.525c0 .144-.026.287-.026.454-.025.31.229.597.559.621.33.024.634-.215.66-.525.025-.359.05-.717.05-1.051 0-3.416-1.472-6.522-3.857-8.767z"/>
        <path fill="#692936" d="M24.412 18.181l-4.355-2.256c-1.452-.76-1.502-.262-3.027 1.306-.37.38-1.059 1.378-1.87 1.188-1.699-.404-4.873-2.803-5.907-3.896C8.76 14 6.644 11.506 6.62 10.7c-.05-1.235 2.756-1.853 1.845-4.205L6.521 2.29C4.701-1.748-.394 4.713.024 7.73c1.083 7.434 14.594 19.454 22.124 15.487 1.674-.903 3.938-4.062 2.264-5.036z"/>
    </g>
</svg>
