<svg xmlns="http://www.w3.org/2000/svg" width="25" height="20" viewBox="0 0 25 20">
    <g fill="#770217" fill-rule="evenodd">
        <path d="M22.566 20A2.02 2.02 0 0 0 24 19.422l-6.944-7.42c-.166.127-.328.251-.48.37-.52.408-.942.728-1.265.956-.324.23-.755.463-1.293.702-.538.239-1.04.358-1.504.358h-.028c-.465 0-.966-.12-1.504-.358-.538-.239-.97-.472-1.293-.702a32.304 32.304 0 0 1-1.265-.957A60.472 60.472 0 0 0 7.945 12L1 19.422A2.02 2.02 0 0 0 2.434 20h20.132zM1.354 8.24A7.249 7.249 0 0 1 0 7v11l6-6.372c-1.2-.89-2.747-2.019-4.646-3.389zM23.659 8.239A395.11 395.11 0 0 0 19 11.63L25 18V7a7.554 7.554 0 0 1-1.341 1.239z"/>
        <path d="M22.768 0H2.232C1.516 0 .965.252.579.754.193 1.257 0 1.886 0 2.64c0 .61.256 1.27.767 1.981.512.711 1.056 1.27 1.632 1.676.317.232 1.27.921 2.86 2.067a924.576 924.576 0 0 1 3.656 2.648l.208.154.385.289c.302.227.553.41.753.551.2.14.442.298.726.472.283.174.55.304.802.391.251.087.483.131.697.131h.028c.214 0 .446-.044.698-.13a4.15 4.15 0 0 0 .802-.392c.283-.174.525-.332.725-.472.2-.14.452-.324.754-.551a93.752 93.752 0 0 1 .593-.443l1.412-1.02c1.156-.836 2.86-2.066 5.117-3.695a6.778 6.778 0 0 0 1.702-1.785c.455-.696.683-1.426.683-2.19a2.27 2.27 0 0 0-.663-1.64C23.895.227 23.372 0 22.767 0z"/>
    </g>
</svg>
