<svg id="Capa_1" enable-background="new 0 0 505.22 505.22" height="512" viewBox="0 0 505.22 505.22" width="512" xmlns="http://www.w3.org/2000/svg"><path fill="#ffffff" d="m497.72 435.535h-37.64c-4.142 0-7.5 3.358-7.5 7.5s3.358 7.5 7.5 7.5h29.516c-1.524 9.047-5.802 17.38-12.416 23.994-8.422 8.413-19.605 13.046-31.49 13.046h-246.695c10.536-9.349 17.744-22.371 19.595-37.04h211.49c4.142 0 7.5-3.358 7.5-7.5s-3.358-7.5-7.5-7.5h-29.126c.019-40.855 14.133-88.255 29.036-138.278 4.692-15.749 9.53-32.017 13.958-48.218 1.535-1.89 3.053-3.809 4.546-5.764 18.835-24.673 36.875-58.145 47.08-87.354 8.714-24.944 15.536-57.4-1.455-70.371-10.591-8.086-26.051-5.245-41.465 1.671-8.045-24.229-21.215-44.815-38.444-59.898-18.179-15.914-39.953-24.678-61.31-24.678h-286.16c-36.801 0-66.74 29.944-66.74 66.75 0 36.801 29.939 66.74 66.74 66.74h93.574c.546 10.701.208 21.844-1.011 33.221-.442 4.118 2.539 7.815 6.658 8.257.271.029.542.043.809.043 3.783 0 7.036-2.854 7.448-6.701 1.583-14.764 1.774-29.2.57-42.903-.004-.055-.009-.109-.014-.164-3.244-36.804-16.282-68.538-37.707-91.771-6.69-7.255-14.081-13.451-21.91-18.472h237.743c17.722 0 35.986 7.445 51.429 20.964 15.742 13.781 27.705 32.928 34.831 55.616-4.625 2.697-9.108 5.587-13.302 8.475-14.933 10.28-30.557 23.547-44.734 37.728-3.867-2.4-8.84-4.263-15.464-4.263-12.853 0-19.443 6.81-24.739 12.282-4.908 5.071-7.758 7.718-13.971 7.718-6.207 0-9.055-2.646-13.96-7.715-5.295-5.473-11.886-12.285-24.74-12.285-12.853 0-19.443 6.81-24.739 12.282-4.908 5.071-7.758 7.718-13.971 7.718-6.207 0-9.055-2.646-13.96-7.715-5.295-5.473-11.886-12.285-24.74-12.285-4.142 0-7.5 3.358-7.5 7.5s3.358 7.5 7.5 7.5c6.206 0 9.055 2.645 13.959 7.715 5.295 5.473 11.886 12.285 24.74 12.285 12.86 0 19.453-6.812 24.75-12.286 4.905-5.069 7.754-7.714 13.96-7.714 6.207 0 9.055 2.646 13.96 7.715 5.295 5.473 11.886 12.285 24.74 12.285 12.86 0 19.453-6.812 24.75-12.286 4.905-5.069 7.754-7.714 13.96-7.714 1.761 0 3.244.228 4.578.643-5.869 6.43-11.348 12.933-16.234 19.333-11.13 14.58-20.204 29.887-26.799 44.779-2.219 1.627-4.686 2.665-8.505 2.665-6.213 0-9.063-2.646-13.971-7.718-5.295-5.472-11.886-12.282-24.739-12.282s-19.443 6.81-24.739 12.282c-4.908 5.071-7.758 7.718-13.971 7.718-6.207 0-9.055-2.646-13.96-7.715-5.295-5.473-11.886-12.285-24.74-12.285-4.142 0-7.5 3.358-7.5 7.5s3.358 7.5 7.5 7.5c6.207 0 9.055 2.646 13.96 7.715 5.295 5.473 11.886 12.285 24.74 12.285 12.86 0 19.453-6.812 24.75-12.286 4.905-5.069 7.754-7.714 13.96-7.714s9.055 2.645 13.96 7.714c5.297 5.474 11.89 12.286 24.75 12.286.61 0 1.208-.021 1.802-.052-2.584 8.2-4.293 16.111-5.059 23.528-7.869-2.679-16.915-.223-22.231 6.74-1.188 1.557-2.1 3.238-2.764 4.981-4.652-4.116-10.706-7.788-20.138-7.788-12.86 0-19.453 6.812-24.75 12.286-4.905 5.069-7.754 7.714-13.96 7.714s-9.055-2.645-13.96-7.714c-5.297-5.474-11.89-12.286-24.75-12.286-4.142 0-7.5 3.358-7.5 7.5s3.358 7.5 7.5 7.5c6.213 0 9.063 2.646 13.971 7.718 5.295 5.472 11.886 12.282 24.739 12.282s19.443-6.81 24.739-12.282c4.908-5.071 7.758-7.718 13.971-7.718 6.202 0 9.051 2.644 13.958 7.711.466.481.954.981 1.448 1.482-8.252 7.95-18.497 13.733-29.652 16.6-.091.023-.18.048-.27.075-9.878 2.66-16.831 11.271-17.337 21.518l-3.545 72.644c-.346 7.038 2.792 13.793 8.395 18.07 3.783 2.888 8.36 4.395 12.996 4.395 2.229 0 4.472-.348 6.646-1.059l69.146-22.571c9.749-3.188 16.223-12.168 16.183-22.4.001-.091.002-.182 0-.274-.204-13.491 3.778-26.835 11.266-38.041 5.909-.073 11.729-2.756 15.584-7.806 5.315-6.962 5.3-16.333.644-23.217 14.805-5.736 30.647-16.22 45.762-30.149-1.973 6.722-3.96 13.413-5.922 20.002-15.224 51.102-29.646 99.53-29.662 142.561h-174.389c-4.142 0-7.5 3.358-7.5 7.5 0 24.559-19.976 44.54-44.53 44.54-23.132 0-42.195-17.337-44.342-40.327 0 0-.182-2.912-.185-2.951-2.246-42.75 12.838-93.389 28.808-147.001 9.361-31.427 19.041-63.925 25.502-96.053.817-4.061-1.813-8.015-5.874-8.832-4.059-.816-8.015 1.813-8.831 5.874-6.327 31.458-15.907 63.623-25.173 94.728-16.352 54.896-31.797 106.749-29.41 152.09.006.172.228 3.538.228 3.538 1.373 14.7 8.147 28.307 19.074 38.314 10.999 10.072 25.276 15.619 40.203 15.619h286.16c15.888 0 30.836-6.191 42.093-17.437 11.245-11.244 17.437-26.197 17.437-42.103 0-4.141-3.358-7.499-7.5-7.499zm-338.782-314.4h-92.198c-28.53 0-51.74-23.21-51.74-51.74 0-28.535 23.21-51.75 51.74-51.75 38.847 0 83.213 36.194 92.198 103.49zm174.34 251.043c-.001.08-.001.159 0 .24.056 3.734-2.292 7.024-5.84 8.184l-65.435 21.359 18.182-23.816c2.419.827 4.964 1.253 7.551 1.253 1.055 0 2.118-.071 3.182-.213 6.237-.837 11.775-4.052 15.594-9.054s5.461-11.192 4.624-17.429c-.836-6.237-4.052-11.775-9.054-15.594-10.326-7.883-25.14-5.895-33.023 4.43-6.291 8.241-6.289 19.338-.785 27.491l-18.186 23.823 3.354-68.736c.185-3.733 2.738-6.865 6.355-7.795.079-.02.157-.042.234-.064 14.863-3.867 28.399-11.961 38.877-23.084l46.394 35.418c-7.975 13.05-12.211 28.236-12.024 43.587zm-52.298-21.539c2.863-3.751 8.246-4.474 11.999-1.61 1.817 1.387 2.986 3.399 3.29 5.666.304 2.266-.292 4.515-1.68 6.333-1.387 1.817-3.399 2.986-5.666 3.29-2.266.305-4.515-.292-6.333-1.68-3.752-2.864-4.474-8.247-1.61-11.999zm82.228-33.403c-1.635 2.143-4.709 2.556-6.854.92l-50.299-38.399c-2.143-1.636-2.555-4.71-.919-6.854.961-1.259 2.419-1.921 3.893-1.921 1.035 0 2.077.326 2.961 1.001l50.3 38.399c2.141 1.637 2.553 4.712.918 6.854zm-.723-25.574-21.125-16.127-11.361-8.673c-.522-23.463 13.293-56.969 35.928-86.619 17.94-23.5 44.164-48.479 68.436-65.187 17.874-12.304 41.864-24.292 50.653-17.583 8.792 6.711 3.553 33.015-3.604 53.501-9.719 27.818-26.901 59.698-44.842 83.199-22.634 29.65-51.314 51.808-74.085 57.489z"/><path fill="#ffffff" d="m210.837 88.752c6.208 0 9.057 2.646 13.963 7.715 5.296 5.473 11.887 12.285 24.742 12.285 12.856 0 19.447-6.812 24.743-12.285 4.906-5.07 7.755-7.715 13.963-7.715s9.058 2.646 13.963 7.716c5.296 5.473 11.887 12.284 24.742 12.284 12.856 0 19.448-6.811 24.745-12.284 4.906-5.07 7.756-7.716 13.966-7.716s9.06 2.646 13.966 7.716c5.297 5.473 11.889 12.284 24.745 12.284 4.142 0 7.5-3.358 7.5-7.5s-3.358-7.5-7.5-7.5c-6.21 0-9.06-2.646-13.966-7.716-5.297-5.473-11.889-12.284-24.745-12.284s-19.448 6.811-24.745 12.284c-4.906 5.07-7.756 7.716-13.966 7.716-6.208 0-9.057-2.646-13.963-7.715-5.296-5.473-11.887-12.285-24.743-12.285s-19.447 6.812-24.743 12.284c-4.906 5.07-7.755 7.716-13.964 7.716-6.208 0-9.057-2.646-13.963-7.715-5.296-5.473-11.887-12.285-24.742-12.285-4.142 0-7.5 3.358-7.5 7.5s3.36 7.5 7.502 7.5z"/></svg>